#N canvas 30 99 1104 811 10;
#X obj 251 53 loadbang;
#X obj 253 100 bng 15 250 50 0 empty empty empty 17 7 0 10 -262144
-1 -1;
#X msg 178 169 start;
#X obj 160 137 delay 500;
#X msg 249 133 open speech.wav;
#X obj 251 178 readsf~;
#X obj 320 219 delwrite~ delayline 1000;
#X obj 330 258 hsl 128 15 1 1000 0 0 empty empty delay -2 -8 0 10 -262144
-1 -1 0 1;
#X floatatom 327 293 5 0 0 0 - - -;
#X obj 327 328 sig~;
#X obj 329 366 vd~ delayline;
#X obj 256 407 +~;
#X obj 386 763 output~;
#X obj 512 758 wsprobe~;
#X obj 356 174 r~ feedback;
#X obj 490 344 hsl 128 15 0 1 0 0 empty empty feedback -2 -8 0 10 -262144
-1 -1 0 1;
#X floatatom 488 375 5 0 0 0 - - -;
#X obj 489 408 sig~;
#X obj 489 455 *~;
#X obj 495 501 s~ feedback;
#X obj 442 714 +~;
#X obj 763 353 hsl 128 15 0 100 0 0 empty empty Mixer -2 -8 0 10 -262144
-1 -1 0 1;
#X text 678 353 100% original;
#X text 899 352 0% original;
#X msg 694 404 0;
#X msg 854 405 100;
#X obj 731 457 +;
#X obj 835 459 -;
#X floatatom 729 511 5 0 0 0 - - -;
#X floatatom 829 512 5 0 0 0 - - -;
#X obj 730 559 / 100;
#X obj 823 559 / 100;
#X floatatom 717 589 5 0 0 0 - - -;
#X floatatom 810 605 5 0 0 0 - - -;
#X obj 578 651 *~ 0;
#X obj 405 652 *~ 0;
#X connect 0 0 1 0;
#X connect 1 0 4 0;
#X connect 1 0 3 0;
#X connect 2 0 5 0;
#X connect 3 0 2 0;
#X connect 4 0 5 0;
#X connect 5 0 6 0;
#X connect 5 0 11 0;
#X connect 5 0 34 0;
#X connect 5 1 1 0;
#X connect 7 0 8 0;
#X connect 8 0 9 0;
#X connect 9 0 10 0;
#X connect 10 0 11 1;
#X connect 11 0 18 0;
#X connect 11 0 35 0;
#X connect 14 0 6 0;
#X connect 15 0 16 0;
#X connect 16 0 17 0;
#X connect 17 0 18 1;
#X connect 18 0 19 0;
#X connect 20 0 12 0;
#X connect 20 0 12 1;
#X connect 20 0 13 0;
#X connect 21 0 26 0;
#X connect 21 0 27 1;
#X connect 21 0 25 0;
#X connect 21 0 24 0;
#X connect 24 0 26 1;
#X connect 25 0 27 0;
#X connect 26 0 28 0;
#X connect 27 0 29 0;
#X connect 28 0 30 0;
#X connect 29 0 31 0;
#X connect 30 0 32 0;
#X connect 31 0 33 0;
#X connect 32 0 35 1;
#X connect 33 0 34 1;
#X connect 34 0 20 1;
#X connect 35 0 20 0;
