#N canvas 690 176 958 988 10;
#X obj 288 131 loadbang;
#X obj 288 188 bng 15 250 50 0 empty empty empty 17 7 0 10 -262144
-1 -1;
#X msg 187 259 start;
#X obj 187 223 delay 500;
#X msg 288 261 open speech.wav;
#X obj 288 315 readsf~;
#X obj 272 500 output~;
#X obj 381 503 wsprobe~;
#X obj 313 353 hsl 128 15 0 10000 0 0 empty empty empty -2 -8 0 10
-262144 -1 -1 9800 1;
#X text 309 334 cut-off-frequency;
#X floatatom 310 394 5 0 0 0 - - -;
#X text 185 260 comment;
#X obj 289 438 hip~;
#X connect 0 0 1 0;
#X connect 1 0 3 0;
#X connect 1 0 4 0;
#X connect 2 0 5 0;
#X connect 3 0 2 0;
#X connect 4 0 5 0;
#X connect 5 0 12 0;
#X connect 5 1 1 0;
#X connect 8 0 10 0;
#X connect 10 0 12 1;
#X connect 12 0 6 0;
#X connect 12 0 6 1;
#X connect 12 0 7 0;
