#N canvas 851 189 958 988 10;
#X obj 266 111 loadbang;
#X obj 266 164 bng 15 250 50 0 empty empty empty 17 7 0 10 -262144
-1 -1;
#X msg 169 219 start;
#X obj 169 192 delay 500;
#X msg 266 199 open speech.wav;
#X obj 266 247 readsf~;
#X obj 330 486 wsprobe~;
#X obj 266 295 GraphicEqualiser~;
#X obj 236 485 output~;
#X obj 490 552 wsprobe~-help;
#X msg 65 35;
#X msg 96 22;
#X obj 78 62;
#X text 322 288 comment;
#X text 165 240;
#X connect 0 0 1 0;
#X connect 1 0 3 0;
#X connect 1 0 4 0;
#X connect 2 0 5 0;
#X connect 3 0 2 0;
#X connect 4 0 5 0;
#X connect 5 0 7 0;
#X connect 5 1 1 0;
#X connect 7 0 6 0;
#X connect 7 0 8 0;
#X connect 7 0 8 1;
