#N canvas 549 273 644 575 10;
#X obj 247 66 bng 15 250 50 0 empty empty empty 17 7 0 10 -262144 -1
-1;
#X obj 247 37 loadbang;
#X obj 143 104 delay 500;
#X msg 143 133 start;
#X obj 247 162 readsf~;
#X msg 247 93 open speech.wav;
#X obj 248 457 *~;
#X obj 230 486 output~;
#X obj 316 486 wsprobe~;
#X obj 260 189 LFO~ 10 1;
#X obj 260 340 sig~;
#X obj 261 375 +~;
#X obj 262 408 *~ 0.5;
#X connect 0 0 5 0;
#X connect 0 0 2 0;
#X connect 1 0 0 0;
#X connect 2 0 3 0;
#X connect 3 0 4 0;
#X connect 4 0 6 0;
#X connect 4 1 0 0;
#X connect 5 0 4 0;
#X connect 6 0 7 0;
#X connect 6 0 7 1;
#X connect 6 0 8 0;
#X connect 9 0 10 0;
#X connect 9 2 11 0;
#X connect 10 0 11 1;
#X connect 11 0 12 0;
#X connect 12 0 6 1;
