#N canvas 162 265 644 575 10;
#X obj 248 73 bng 15 250 50 0 empty empty empty 17 7 0 10 -262144 -1
-1;
#X obj 242 36 loadbang;
#X obj 143 104 delay 500;
#X msg 147 133 start;
#X obj 244 160 readsf~;
#X msg 239 119 open speech.wav;
#X obj 243 433 *~;
#X obj 230 486 output~;
#X obj 316 492 wsprobe~;
#X obj 402 193 LFO~ 10 1;
#X obj 323 325 sig~;
#X obj 590 -17 vradio 15 1 0 2 empty empty empty 0 -8 0 10 -262144
-1 -1 0;
#X text 516 -18 speech file;
#X text 518 -3 live speech;
#X obj 333 235 adc~;
#X obj 534 25 route 0 1;
#X obj 543 428;
#X obj 238 232 spigot~;
#X obj 350 175 tgl 15 0 empty empty empty 17 7 0 10 -262144 -1 -1 0
1;
#X obj 562 406;
#X obj 354 2 loadbang;
#X obj 583 447;
#X obj 170 303 *~;
#X obj 422 109 bng 15 250 50 0 empty empty empty 17 7 0 10 -262144
-1 -1;
#X msg 506 402;
#X msg 576 389;
#X connect 0 0 5 0;
#X connect 0 0 2 0;
#X connect 1 0 0 0;
#X connect 2 0 3 0;
#X connect 3 0 4 0;
#X connect 4 0 17 0;
#X connect 4 1 1 0;
#X connect 5 0 4 0;
#X connect 6 0 7 0;
#X connect 6 0 7 1;
#X connect 6 0 8 0;
#X connect 9 0 10 0;
#X connect 9 2 6 1;
#X connect 11 0 15 0;
#X connect 14 0 6 0;
#X connect 15 0 23 0;
#X connect 15 1 23 0;
#X connect 17 0 22 0;
#X connect 17 1 6 0;
#X connect 18 0 17 1;
#X connect 20 0 23 0;
#X connect 23 0 18 0;
