#N canvas 697 87 863 762 10;
#X obj 124 16 loadbang;
#X obj 127 63 bng 15 250 50 0 empty empty empty 17 7 0 10 -262144 -1
-1;
#X obj 49 94 delay 500;
#X msg 49 133 start;
#X msg 127 134 open speech.wav;
#X obj 128 174 readsf~;
#X obj 132 367 hilbert~;
#X obj 132 408 *~;
#X obj 131 447 -~;
#X obj 235 663 output~;
#X obj 356 676 wsprobe~;
#X obj 183 410 *~;
#X obj 256 365 cos~;
#X obj 317 365 cos~;
#X obj 317 332 +~ -0.25;
#X obj 253 294 phasor~;
#X obj 253 260 sig~;
#X floatatom 251 227 5 0 0 0 - - -;
#X msg 250 158 0;
#X obj 253 195 hsl 128 15 -1000 1000 0 0 empty empty Frequency_shift
-2 -8 0 10 -262144 -1 -1 3050 1;
#X text 381 217 1000;
#X text 221 206 -1000;
#X obj 484 281 hsl 128 15 0 100 0 0 empty empty Mixer -2 -8 0 10 -262144
-1 -1 6100 1;
#X obj 455 381 +;
#X floatatom 449 425 5 0 0 0 - - -;
#X floatatom 552 426 5 0 0 0 - - -;
#X msg 577 335 100;
#X msg 416 325 0;
#X obj 557 383 -;
#X obj 449 463 / 100;
#X obj 552 467 / 100;
#X floatatom 451 507 5 0 0 0 - - -;
#X floatatom 555 513 5 0 0 0 - - -;
#X text 621 284 0% original;
#X text 394 280 100% original;
#X obj 342 606 +~;
#X obj 244 549 *~ 0;
#X obj 441 573 *~ 0;
#X connect 0 0 1 0;
#X connect 0 0 18 0;
#X connect 1 0 4 0;
#X connect 1 0 2 0;
#X connect 2 0 3 0;
#X connect 3 0 5 0;
#X connect 4 0 5 0;
#X connect 5 0 6 0;
#X connect 5 0 37 0;
#X connect 5 1 1 0;
#X connect 6 0 7 0;
#X connect 6 1 11 0;
#X connect 7 0 8 0;
#X connect 8 0 36 0;
#X connect 11 0 8 1;
#X connect 12 0 7 1;
#X connect 13 0 11 1;
#X connect 14 0 13 0;
#X connect 15 0 12 0;
#X connect 15 0 14 0;
#X connect 16 0 15 0;
#X connect 17 0 16 0;
#X connect 18 0 19 0;
#X connect 19 0 17 0;
#X connect 22 0 23 0;
#X connect 22 0 27 0;
#X connect 22 0 26 0;
#X connect 22 0 28 1;
#X connect 23 0 24 0;
#X connect 24 0 29 0;
#X connect 25 0 30 0;
#X connect 26 0 28 0;
#X connect 27 0 23 1;
#X connect 28 0 25 0;
#X connect 29 0 31 0;
#X connect 30 0 32 0;
#X connect 31 0 36 1;
#X connect 32 0 37 1;
#X connect 35 0 9 0;
#X connect 35 0 9 1;
#X connect 35 0 10 0;
#X connect 36 0 35 0;
#X connect 37 0 35 1;
