#N canvas 76 234 795 688 10;
#X obj 124 16 loadbang;
#X obj 127 63 bng 15 250 50 0 empty empty empty 17 7 0 10 -262144 -1
-1;
#X obj 49 94 delay 500;
#X msg 49 133 start;
#X msg 127 134 open speech.wav;
#X obj 128 174 readsf~;
#X obj 132 332 hilbert~;
#X obj 130 391 *~;
#X obj 131 447 -~;
#X obj 131 602 output~;
#X obj 220 606 wsprobe~;
#X obj 182 386 *~;
#X obj 249 352 cos~;
#X obj 317 365 cos~;
#X obj 312 337 +~ -0.25;
#X obj 250 303 phasor~;
#X obj 249 245 sig~;
#X floatatom 251 216 5 0 0 0 - - -;
#X msg 248 103 0;
#X obj 252 146 hsl 128 15 -1000 1000 0 0 empty empty Frequency_shift
-2 -8 0 10 -262144 -1 -1 7750 1;
#X text 370 164 1000;
#X text 221 164 -1000;
#X obj 249 186 +;
#X floatatom 413 201 5 0 0 0 - - -;
#X obj 250 277 +~;
#X obj 496 542;
#X obj 658 605;
#X obj 546 53 LFO~ 50 350;
#X obj 667 455;
#X obj 453 104 bng 15 250 50 0 empty empty empty 17 7 0 10 -262144
-1 -1;
#X connect 0 0 1 0;
#X connect 0 0 18 0;
#X connect 1 0 4 0;
#X connect 1 0 2 0;
#X connect 2 0 3 0;
#X connect 3 0 5 0;
#X connect 4 0 5 0;
#X connect 5 0 6 0;
#X connect 5 1 1 0;
#X connect 6 0 7 0;
#X connect 6 1 11 0;
#X connect 7 0 8 0;
#X connect 8 0 9 0;
#X connect 8 0 9 1;
#X connect 8 0 10 0;
#X connect 11 0 8 1;
#X connect 12 0 7 1;
#X connect 13 0 11 1;
#X connect 14 0 13 0;
#X connect 15 0 12 0;
#X connect 15 0 14 0;
#X connect 16 0 24 0;
#X connect 17 0 16 0;
#X connect 18 0 19 0;
#X connect 19 0 22 0;
#X connect 22 0 17 0;
#X connect 23 0 22 1;
#X connect 24 0 15 0;
#X connect 27 1 23 0;
#X connect 27 1 29 0;
#X connect 27 2 24 1;
#X connect 29 0 19 0;
