#N canvas 122 292 410 572 10;
#X obj 382 51 bng 15 250 50 0 empty empty empty 17 7 0 10 -262144 -1
-1;
#X obj 219 19 bng 15 250 50 0 empty empty empty 17 7 0 10 -262144 -1
-1;
#X floatatom 186 72 5 0 0 0 - - -;
#X floatatom 281 71 5 0 0 0 - - -;
#X floatatom 186 340 5 0 0 0 - - -;
#X floatatom 279 346 5 0 0 0 - - -;
#X obj 378 346 wsprobe~;
#X obj 829 459;
#X obj 823 463;
#X obj 186 152 LFO~ 5 0.5;
#X text 133 358 Depth outlet;
#X text 366 366 Audio signal outlet;
#X text 248 84 Depth inlet;
#X text 391 66 Reset inlet;
#X text 253 363 Speed Outlet;
#X text 152 87 Speed inlet;
#X text 124 405 LFO~ is a low frequency oscillator that generates a
sound signal provided a speed and a depth. The speed and the depth
can be altered using the sliders or by passing values into the respective
inlets. The initial configuration of the LFO can be set using arguments
which specify the speed and depth. The reset bang will restore the
initial configuration of the LFO. LFO can also alter it's output between
a sine or square waveform. LFO also provides external outlets for both
speed and depth.;
#X connect 0 0 9 2;
#X connect 1 0 2 0;
#X connect 1 0 3 0;
#X connect 2 0 9 0;
#X connect 3 0 9 1;
#X connect 9 0 4 0;
#X connect 9 1 5 0;
#X connect 9 2 6 0;
