#N canvas 150 104 1132 627 10;
#X floatatom 257 148 5 0 0 0 - - -;
#X floatatom 256 194 5 0 0 0 - - -;
#X obj 275 106 bng 15 250 50 0 empty empty empty 17 7 0 10 -262144
-1 -1;
#X text 262 124 RESET;
#X obj 107 150 hsl 128 15 0 50 0 0 empty empty SPEED -2 -8 0 10 -262144
-1 -1 12700 1;
#X obj 108 198 hsl 128 15 0 1 0 0 empty empty DEPTH -2 -8 0 10 -262144
-1 -1 12700 1;
#X text 103 165 0;
#X text 226 165 50;
#X text 103 215 0;
#X text 232 215 1;
#X text 219 102 SINE;
#X text 219 121 SQUARE;
#X obj 274 26 inlet;
#X obj 12 159 inlet;
#X obj 11 114 inlet;
#X obj 62 23 loadbang;
#X obj 77 68 f \$1;
#X obj 145 26 loadbang;
#X obj 125 74 f \$2;
#X obj 107 303 outlet;
#X obj 209 303 outlet;
#X obj 201 107 vradio 15 1 0 2 empty empty empty 0 -8 0 10 -262144
-1 -1 0;
#X obj 332 275 osc~;
#X obj 338 392 clip~ -1 1;
#X obj 337 431 *~;
#X obj 337 474 outlet~;
#X obj 498 55 route 0 1;
#X obj 451 248 spigot;
#X msg 891 43 0;
#X obj 606 161 1;
#X obj 504 162 0;
#X msg 938 78;
#X floatatom 495 210 5 0 0 0 - - -;
#X msg 968 56;
#X floatatom 422 327 5 0 0 0 - - -;
#X obj 448 154 99999;
#X obj 542 162 1;
#X obj 538 269 spigot;
#X obj 556 216 1;
#X obj 337 347 *~;
#X obj 605 267 loadbang;
#X obj 546 298 1;
#X obj 970 112;
#X obj 974 159;
#X obj 945 143;
#X obj 452 115 bng 15 250 50 0 empty empty empty 17 7 0 10 -262144
-1 -1;
#X text 918 104 h;
#X connect 0 0 22 0;
#X connect 0 0 20 0;
#X connect 1 0 24 1;
#X connect 1 0 19 0;
#X connect 2 0 17 0;
#X connect 2 0 15 0;
#X connect 4 0 0 0;
#X connect 5 0 1 0;
#X connect 12 0 2 0;
#X connect 13 0 5 0;
#X connect 14 0 4 0;
#X connect 15 0 16 0;
#X connect 16 0 4 0;
#X connect 16 0 0 0;
#X connect 17 0 18 0;
#X connect 18 0 5 0;
#X connect 18 0 1 0;
#X connect 21 0 26 0;
#X connect 22 0 39 0;
#X connect 23 0 24 0;
#X connect 24 0 25 0;
#X connect 26 0 36 0;
#X connect 26 0 30 0;
#X connect 26 0 45 0;
#X connect 26 1 29 0;
#X connect 26 1 45 0;
#X connect 27 0 34 0;
#X connect 29 0 32 0;
#X connect 30 0 32 0;
#X connect 32 0 27 1;
#X connect 34 0 39 1;
#X connect 35 0 27 0;
#X connect 36 0 38 0;
#X connect 37 0 34 0;
#X connect 38 0 37 0;
#X connect 38 0 37 1;
#X connect 39 0 23 0;
#X connect 40 0 41 0;
#X connect 41 0 34 0;
#X connect 45 0 35 0;
#X coords 0 -1 1 1 200 130 1 100 100;
