#N canvas 322 326 586 637 10;
#X obj 70 388 inlet~;
#X obj 134 380 inlet~;
#X obj 86 519 outlet~;
#X obj 134 435 *~ 0;
#X obj 70 427 *~ 0;
#X obj 94 475 +~;
#X obj 148 128 hsl 128 15 0 100 0 0 empty empty Mixer -2 -8 0 10 -262144
-1 -1 0 1;
#X text 102 143 100% original;
#X text 245 143 0% original;
#X msg 249 210 100;
#X msg 192 207 0;
#X obj 244 250 -;
#X obj 187 245 +;
#X floatatom 184 282 5 0 0 0 - - -;
#X floatatom 239 281 5 0 0 0 - - -;
#X obj 181 311 / 100;
#X obj 241 309 / 100;
#X msg 553 -27;
#X floatatom 178 338 5 0 0 0 - - -;
#X floatatom 237 341 5 0 0 0 - - -;
#X obj 211 1 loadbang;
#X obj 206 40 f \$1;
#X obj 337 78 inlet;
#X connect 0 0 4 0;
#X connect 1 0 3 0;
#X connect 3 0 5 1;
#X connect 4 0 5 0;
#X connect 5 0 2 0;
#X connect 6 0 10 0;
#X connect 6 0 9 0;
#X connect 6 0 12 0;
#X connect 6 0 11 1;
#X connect 9 0 11 0;
#X connect 10 0 12 1;
#X connect 11 0 14 0;
#X connect 12 0 13 0;
#X connect 13 0 15 0;
#X connect 14 0 16 0;
#X connect 15 0 18 0;
#X connect 16 0 19 0;
#X connect 18 0 4 1;
#X connect 19 0 3 1;
#X connect 20 0 21 0;
#X connect 21 0 6 0;
#X connect 22 0 6 0;
#X coords 0 -1 1 1 220 60 1 100 100;
