#N canvas 170 229 741 596 10;
#X obj 103 103 cnv 15 214 74 empty empty Shifter 20 12 0 14 -233017
-66577 0;
#X obj -25 34 inlet~;
#X obj 16 465 outlet~;
#X obj 15 192 hilbert~;
#X obj 14 400 *~;
#X obj 59 398 *~;
#X obj 15 432 -~;
#X obj 172 332 cos~;
#X obj 218 333 cos~;
#X obj 173 267 phasor~;
#X obj 218 297 +~ -0.25;
#X obj 172 222 sig~;
#X obj 124 147 hsl 128 15 -1000 1000 0 0 empty shifter-frequency Frequency_shift
-2 -8 0 10 -257985 -1 -1 6350 1;
#X floatatom 264 144 5 0 0 0 - - -;
#X obj 121 12 loadbang;
#X obj 274 108 bng 15 250 50 0 empty fre-reset empty 17 7 0 10 -204786
-1 -1;
#X text 261 126 RESET;
#X obj 232 108 tgl 15 0 \$0-activate activate-fre empty 17 7 0 10 -204800
-1 -1 1 1;
#X text 223 127 ACTIV;
#X obj 28 34 r \$0-activate;
#X obj -25 85 spigot~;
#X obj -26 121 s~ \$0-bypass;
#X obj 84 423 r~ \$0-bypass;
#X text 114 160 -1000;
#X text 236 161 1000;
#X msg 135 52 \; shifter-frequency 0 \;;
#X text 313 286 Switch off the activate toggle to bypass signal to
next sound-effect patch or outlet.;
#X text 313 262 Swich on the activate toggle to activate the sound-effect.
;
#X text 312 227 This is a sound-effect patch that shifts the freqeuncy
of the soundwave.;
#X text 314 321 Click on reset to set parameter to default value;
#X connect 1 0 20 0;
#X connect 3 0 4 0;
#X connect 3 1 5 0;
#X connect 4 0 6 0;
#X connect 5 0 6 1;
#X connect 6 0 2 0;
#X connect 7 0 4 1;
#X connect 8 0 5 1;
#X connect 9 0 10 0;
#X connect 9 0 7 0;
#X connect 10 0 8 0;
#X connect 11 0 9 0;
#X connect 12 0 13 0;
#X connect 13 0 11 0;
#X connect 14 0 25 0;
#X connect 15 0 25 0;
#X connect 19 0 20 1;
#X connect 20 0 21 0;
#X connect 20 1 3 0;
#X connect 22 0 2 0;
#X coords 0 -1 1 1 220 80 1 100 100;
