#N canvas 286 269 764 637 10;
#X obj 103 103 cnv 15 214 74 empty empty Mixer 20 12 0 14 -233017 -66577
0;
#X obj 56 536 outlet~;
#X obj 96 450 *~ 0;
#X obj 30 452 *~ 0;
#X obj 56 490 +~;
#X obj 148 144 hsl 128 15 0 100 0 0 empty mixer Mixer -2 -8 0 10 -257985
-1 -1 12700 1;
#X text 102 159 100% original;
#X text 245 159 0% original;
#X msg 243 218 100;
#X msg 198 218 0;
#X obj 243 248 -;
#X obj 183 247 +;
#X floatatom 183 280 5 0 0 0 - - -;
#X floatatom 243 279 5 0 0 0 - - -;
#X obj 183 309 / 100;
#X obj 243 307 / 100;
#X floatatom 183 336 5 0 0 0 - - -;
#X floatatom 243 337 5 0 0 0 - - -;
#X obj 211 1 loadbang;
#X obj 284 105 bng 15 250 50 0 empty mixer-reset empty 17 7 0 10 -204786
-1 -1;
#X text 271 123 RESET;
#X obj 31 378 inlet~;
#X obj 95 378 inlet~;
#X msg 265 42 \; mixer 100;
#X text 388 139 This patch read two signal inputs \, one is origianl
sound \, another is mainpulated sound. and assign percent to each input
to create a mixed output signal \, the default is 0% of original sound.
;
#X connect 2 0 4 1;
#X connect 3 0 4 0;
#X connect 4 0 1 0;
#X connect 5 0 9 0;
#X connect 5 0 8 0;
#X connect 5 0 11 0;
#X connect 5 0 10 1;
#X connect 8 0 10 0;
#X connect 9 0 11 1;
#X connect 10 0 13 0;
#X connect 11 0 12 0;
#X connect 12 0 14 0;
#X connect 13 0 15 0;
#X connect 14 0 16 0;
#X connect 15 0 17 0;
#X connect 16 0 3 1;
#X connect 17 0 2 1;
#X connect 18 0 23 0;
#X connect 19 0 23 0;
#X connect 21 0 3 0;
#X connect 22 0 2 0;
#X coords 0 -1 1 1 220 80 1 100 100;
