#N canvas 444 122 1071 539 10;
#X obj 153 -117 cnv 15 134 154 empty empty Pre-set-effects 10 12 0
14 -233017 -66577 0;
#X obj 160 -88 vradio 16 1 0 7 empty empty empty 0 -8 0 10 -261682
-1 -1 0;
#X obj -116 159 bng 15 250 50 0 empty empty empty 17 7 0 10 -262144
-1 -1;
#X obj 3 160 bng 15 250 50 0 empty empty empty 17 7 0 10 -262144 -1
-1;
#X obj 122 160 bng 15 250 50 0 empty empty empty 17 7 0 10 -262144
-1 -1;
#X obj 231 156 bng 15 250 50 0 empty empty empty 17 7 0 10 -262144
-1 -1;
#X obj 362 161 bng 15 250 50 0 empty empty empty 17 7 0 10 -262144
-1 -1;
#X obj 481 162 bng 15 250 50 0 empty empty empty 17 7 0 10 -262144
-1 -1;
#X obj 603 164 bng 15 250 50 0 empty empty empty 17 7 0 10 -262144
-1 -1;
#X text 396 -46 call 'dp-option 0' to reset all effects \, add sound
effect after.;
#X text 184 5 Dalek;
#X msg 653 215 \; dp-option 0 \; ringmodulator-speed 30 \; ringmodulator-depth
1 \; activate-ringm 1 \;;
#X text 183 -9 Gollum;
#X msg 500 216 \; dp-option 0 \; vibrato-speed 50 \; vibrato-depth
350 \; activate-vibrato 1 \;;
#X text 185 -24 C3PO;
#X msg 381 211 \; dp-option 0 \; delay 10 \; feedback 0.9 \; mixer
90 \; activate-rvb 1 \;;
#X text 186 -42 Demon;
#X msg 215 207 \; dp-option 0 \; delay 1 \; feedback -0.8 \; mixer
90 \; tremelo-speed 30 \; tremelo-depth 1 \; shifter-frequency -250
\; activate-fre 1 \; activate-tremelo 1 \; activate-rvb 1 \;;
#X text 187 -73 Echo;
#X obj 160 65 route 0 1 2 3 4 5 6;
#X text 186 -58 Repeating Echo;
#X text 186 -90 Robot;
#X msg -173 207 \; dp-option 0 \; mixer 80 \; shifter-frequency 250
\; activate-fre 1 \;;
#X msg -21 208 \; dp-option 0 \; delay 200 \; activate-rvb 1 \;;
#X msg 95 208 \; dp-option 0 \; delay 500 \; feedback 0.5 \; activate-rvb
1 \; activate-hp 1 \;;
#X connect 1 0 19 0;
#X connect 2 0 22 0;
#X connect 3 0 23 0;
#X connect 4 0 24 0;
#X connect 5 0 17 0;
#X connect 6 0 15 0;
#X connect 7 0 13 0;
#X connect 8 0 11 0;
#X connect 19 0 2 0;
#X connect 19 1 3 0;
#X connect 19 2 4 0;
#X connect 19 3 5 0;
#X connect 19 4 6 0;
#X connect 19 5 7 0;
#X connect 19 6 8 0;
#X coords 0 -1 1 1 140 160 1 150 -120;
