#N canvas 630 128 1164 683 10;
#X obj 103 103 cnv 15 394 154 empty empty Display 20 12 0 16 -233017
-66577 0;
#X obj 260 169 bng 15 250 50 0 empty empty empty 17 7 0 10 -204786
-1 -1;
#X obj 117 297 openpanel;
#X msg 117 332 open \$1;
#X obj 117 373 readsf~;
#X msg 67 354 start;
#X obj 116 417 spigot~;
#X obj 281 591 outlet~;
#X obj 259 413 *~;
#X obj 390 411 spigot~;
#X obj 391 330 adc~;
#X obj 252 377 tgl 15 0 empty empty empty 17 7 0 10 -262144 -1 -1 1
1;
#X obj 472 365 tgl 15 0 empty empty empty 17 7 0 10 -262144 -1 -1 0
1;
#X obj 472 332 bng 15 250 50 0 empty empty empty 17 7 0 10 -262144
-1 -1;
#X obj 252 339 bng 15 250 50 0 empty empty empty 17 7 0 10 -262144
-1 -1;
#X obj 251 40 loadbang;
#X obj 429 282 route 0 1;
#X obj 260 134 vradio 15 1 0 2 empty empty empty 0 -8 0 6 -261682 -1
-1 0;
#X obj 398 370 *~ 2;
#X obj 116 148 vu 15 80 empty empty -1 -8 0 10 -66577 -99865 1 0;
#X obj 449 449 pvu~;
#N canvas 0 0 450 300 (subpatch) 0;
#X array \$0-soundwave 100 float 1;
#A 0 0 0 0 0 0 0 0 0 0 0 0 0 0 0 0 0 0 0 0 0 0 0 0 0 0 0 0 0 0 0 0
0 0 0 0 0 0 0 0 0 0 0 0 0 0 0 0 0 0 0 0 0 0 0 0 0 0 0 0 0 0 0 0 0 0
0 0 0 0 0 0 0 0 0 0 0 0 0 0 0 0 0 0 0 0 0 0 0 0 0 0 0 0 0 0 0 0 0 0
0;
#X coords 0 1 99 -1 200 140 1;
#X restore 288 115 graph;
#X obj 467 501 loadbang;
#X obj 468 526 1;
#X obj 457 555 metro 50;
#X obj 114 461 pvu~;
#X msg 848 352 \; activate-hp 1 \; activate-lp 1 \; activate-rvb 1
\; activate-vibrato 1 \; activate-tremelo 1 \; activate-ringm 1 \;
activate-fre 1;
#X msg 990 353 \; activate-hp 0 \; activate-lp 0 \; activate-rvb 0
\; activate-vibrato 0 \; activate-tremelo 0 \; activate-ringm 0 \;
activate-fre 0;
#X obj 259 207 vradio 15 1 0 3 empty dp-option empty 0 -8 0 10 -261682
-1 -1 0;
#X obj 848 289 bng 15 250 50 0 empty empty empty 17 7 0 10 -262144
-1 -1;
#X obj 848 239 spigot;
#X obj 990 286 bng 15 250 50 0 empty empty empty 17 7 0 10 -262144
-1 -1;
#X obj 748 34 == 0;
#X obj 715 294 bng 15 250 50 0 empty empty empty 17 7 0 10 -262144
-1 -1;
#X obj 715 232 spigot;
#X obj 715 167 bng 15 250 50 0 empty empty empty 17 7 0 10 -262144
-1 -1;
#X obj 848 145 bng 15 250 50 0 empty empty empty 17 7 0 10 -262144
-1 -1;
#X obj 881 33 == 1;
#X obj 1023 34 == 2;
#X obj 259 287 s \$0-options;
#X floatatom 881 93 5 0 0 0 - - -;
#X floatatom 748 98 5 0 0 0 - - -;
#X obj 881 -22 r \$0-options;
#X obj 990 238 spigot;
#X obj 990 141 bng 15 250 50 0 empty empty empty 17 7 0 10 -262144
-1 -1;
#X floatatom 1023 102 5 0 0 0 - - -;
#X text 199 206 RESET all;
#X text 181 222 ACTIVATE all;
#X text 169 237 INACTIVATE all;
#X text 185 132 SPEECH FILE;
#X text 186 150 LIVE SPEECH;
#X text 180 168 OPEN FILE ->;
#X obj 449 593 tabwrite~ \$0-soundwave;
#X obj 449 474 s \$0-VU-live;
#X obj 113 490 s \$0-VU-file;
#X obj 115 40 r \$0-VU-live;
#X obj 125 65 r \$0-VU-file;
#X msg 705 352 \; hp-reset bang \; lp-reset bang \; rvb-reset bang
\; vibrato-reset bang \; tremelo-reset bang \; ringm-reset bang \;
fre-reset bang \; mixer-reset bang \;;
#X text 114 -27 This patch accepts both mic and sound file input. It
is the main sound visualization panel of the voice changer. It contains
displays for the rms decibel reading of the sound input and alogn with
a waveform display of the input.;
#X connect 1 0 2 0;
#X connect 2 0 3 0;
#X connect 3 0 4 0;
#X connect 3 0 5 0;
#X connect 4 0 6 0;
#X connect 5 0 4 0;
#X connect 6 0 8 0;
#X connect 6 1 7 0;
#X connect 6 1 25 0;
#X connect 6 1 52 0;
#X connect 9 0 8 0;
#X connect 9 1 7 0;
#X connect 9 1 20 0;
#X connect 9 1 52 0;
#X connect 10 0 9 0;
#X connect 11 0 6 1;
#X connect 12 0 9 1;
#X connect 13 0 12 0;
#X connect 14 0 11 0;
#X connect 15 0 14 0;
#X connect 16 0 14 0;
#X connect 16 0 13 0;
#X connect 16 1 13 0;
#X connect 16 1 14 0;
#X connect 17 0 16 0;
#X connect 20 0 53 0;
#X connect 22 0 23 0;
#X connect 23 0 24 0;
#X connect 24 0 52 0;
#X connect 25 0 54 0;
#X connect 28 0 39 0;
#X connect 29 0 26 0;
#X connect 30 0 29 0;
#X connect 31 0 27 0;
#X connect 32 0 41 0;
#X connect 33 0 57 0;
#X connect 33 0 27 0;
#X connect 34 0 33 0;
#X connect 35 0 34 0;
#X connect 36 0 30 0;
#X connect 37 0 40 0;
#X connect 38 0 45 0;
#X connect 40 0 30 1;
#X connect 40 0 36 0;
#X connect 41 0 34 1;
#X connect 41 0 35 0;
#X connect 42 0 32 0;
#X connect 42 0 37 0;
#X connect 42 0 38 0;
#X connect 43 0 31 0;
#X connect 44 0 43 0;
#X connect 45 0 43 1;
#X connect 45 0 44 0;
#X connect 55 0 19 0;
#X connect 56 0 19 1;
#X coords 0 -1 1 1 400 160 1 100 100;
