#N canvas 243 213 849 552 10;
#X obj -147 103 cnv 15 214 154 empty empty Tremelo 20 12 0 14 -233017
-66577 0;
#X obj 323 291 *~;
#X obj 285 -5 inlet~;
#X obj 322 354 outlet~;
#X obj 337 253 *~ 0.5;
#X obj 337 215 +~;
#X obj 353 172 sig~;
#X obj 336 -5 r \$0-activate;
#X obj 286 95 s~ \$0-bypass;
#X obj 285 35 spigot~;
#X obj 368 306 r~ \$0-bypass;
#X floatatom 18 153 5 0 0 0 - - -;
#X floatatom 17 199 5 0 0 0 - - -;
#X obj 36 111 bng 15 250 50 0 empty tremelo-reset empty 17 7 0 10 -204786
-1 -1;
#X text 23 129 RESET;
#X obj -132 155 hsl 128 15 0 50 0 0 empty tremelo-speed SPEED -2 -8
0 10 -257985 -1 -1 0 1;
#X obj -131 203 hsl 128 15 1 0 0 0 empty tremelo-depth DEPTH -2 -8
0 10 -257985 -1 -1 0 1;
#X text -131 170 0;
#X text -13 170 50;
#X text -9 221 0;
#X text -133 220 1;
#X obj 454 -23 osc~;
#X obj 454 93 clip~ -1 1;
#X obj 453 155 *~;
#X obj 453 48 *~;
#X obj -3 110 tgl 15 0 \$0-activate activate-tremelo empty 17 7 0 10
-204800 -1 -1 0 1;
#X text -12 130 ACTIV;
#X obj 38 -8 loadbang;
#X floatatom 506 13 5 0 0 0 - - -;
#X obj 506 -73 loadbang;
#X obj 506 -23 1;
#X msg 75 35 \; tremelo-speed 0 \; tremelo-depth 1;
#X obj 83 141 s Tspeed;
#X obj 88 181 s Tdepth;
#X obj 353 126 r Tdepth;
#X obj 468 117 r Tdepth;
#X obj 449 -74 r Tspeed;
#X text -143 361 Switch off the activate toggle to bypass signal to
next sound-effect patch or outlet.;
#X text -142 396 Click on reset to set paremeter to default value;
#X text -141 336 Swich on the activate toggle to activate sound-effect.
;
#X text -142 299 This is a sound-effect patch that raises or lowers
the pitch of the sound input to simulate a tremele sound effect.;
#X connect 1 0 3 0;
#X connect 2 0 9 0;
#X connect 4 0 1 1;
#X connect 5 0 4 0;
#X connect 6 0 5 1;
#X connect 7 0 9 1;
#X connect 9 0 8 0;
#X connect 9 1 1 0;
#X connect 10 0 3 0;
#X connect 11 0 32 0;
#X connect 12 0 33 0;
#X connect 13 0 31 0;
#X connect 15 0 11 0;
#X connect 16 0 12 0;
#X connect 21 0 24 0;
#X connect 22 0 23 0;
#X connect 23 0 5 0;
#X connect 24 0 22 0;
#X connect 27 0 31 0;
#X connect 28 0 24 1;
#X connect 29 0 30 0;
#X connect 30 0 28 0;
#X connect 34 0 6 0;
#X connect 35 0 23 1;
#X connect 36 0 21 0;
#X coords 0 -50 1 1 220 160 1 -150 100;
