#N canvas 724 141 744 751 10;
#X obj -147 103 cnv 15 214 174 empty empty Vibrato 20 12 0 14 -233017
-66577 0;
#X obj 263 49 hilbert~;
#X obj 264 325 *~;
#X obj 398 241 cos~;
#X obj 483 255 cos~;
#X obj 484 226 +~ -0.25;
#X obj 399 192 phasor~;
#X obj 398 134 sig~;
#X floatatom 398 106 5 0 0 0 - - -;
#X obj -129 247 hsl 128 15 -1000 1000 0 0 empty vibrato-frequency Frequency_shift
-2 -8 0 10 -257985 -1 -1 6350 1;
#X text -14 263 1000;
#X text -147 262 -1000;
#X obj 398 75 +;
#X obj 399 166 +~;
#X obj 307 362 *~;
#X obj 265 449 -~;
#X obj 257 542 outlet~;
#X floatatom 22 246 5 0 0 0 - - -;
#X obj 224 -78 inlet~;
#X floatatom 21 155 5 0 0 0 - - -;
#X floatatom 20 201 5 0 0 0 - - -;
#X obj 39 113 bng 15 250 50 0 empty vibrato-reset empty 17 7 0 10 -204786
-1 -1;
#X text 26 131 RESET;
#X obj -129 157 hsl 128 15 0 50 0 0 empty vibrato-speed SPEED -2 -8
0 10 -257985 -1 -1 0 1;
#X obj -128 205 hsl 128 15 0 500 0 0 empty vibrato-depth DEPTH -2 -8
0 10 -257985 -1 -1 0 1;
#X text -133 172 0;
#X text -10 172 50;
#X text -133 222 0;
#X obj 485 -27 osc~;
#X obj 485 53 clip~ -1 1;
#X obj 484 131 *~;
#X obj 484 8 *~;
#X obj -3 113 tgl 15 0 \$0-activate activate-vibrato empty 17 7 0 10
-204800 -1 -1 0 1;
#X obj 329 503 r~ \$0-bypass;
#X obj 224 15 s~ \$0-bypass;
#X text -12 132 ACTIV;
#X obj -57 302 bng 15 250 50 0 empty empty empty 17 7 0 10 -262144
-1 -1;
#X obj 485 -63 r speed;
#X obj 109 155 s speed;
#X obj 413 40 r speed;
#X obj 22 295 s frequency;
#X obj 398 14 r frequency;
#X obj 109 204 s depth;
#X obj 499 90 r depth;
#X obj 108 29 loadbang;
#X msg 108 77 \; vibrato-speed 0 \; vibrato-depth 0 \; vibrato-frequency
0;
#X obj 545 -104 loadbang;
#X msg 545 -46 1;
#X floatatom 545 -8 5 0 0 0 - - -;
#X text -11 221 500;
#X obj 225 -46 spigot~;
#X obj 291 -77 r \$0-activate;
#X text -136 418 Switch off the activate toggle to bypass signal to
next sound-effect patch or outlet.;
#X text -135 453 Click on reset to set paremeter to default value;
#X text -136 394 Swich on the activate toggle to activate sound-effect.
;
#X text -138 347 This is a sound-effect patch that applies a pulsating
change of pitch to the input sound to simulate a vibrato sound effect.
;
#X connect 1 0 2 0;
#X connect 1 1 14 0;
#X connect 2 0 15 0;
#X connect 3 0 2 1;
#X connect 4 0 14 1;
#X connect 5 0 4 0;
#X connect 6 0 3 0;
#X connect 6 0 5 0;
#X connect 7 0 13 0;
#X connect 8 0 7 0;
#X connect 9 0 17 0;
#X connect 12 0 8 0;
#X connect 13 0 6 0;
#X connect 14 0 15 1;
#X connect 15 0 16 0;
#X connect 17 0 40 0;
#X connect 18 0 50 0;
#X connect 19 0 36 0;
#X connect 19 0 38 0;
#X connect 20 0 42 0;
#X connect 21 0 45 0;
#X connect 23 0 19 0;
#X connect 24 0 20 0;
#X connect 28 0 31 0;
#X connect 29 0 30 0;
#X connect 30 0 13 1;
#X connect 31 0 29 0;
#X connect 33 0 16 0;
#X connect 36 0 9 0;
#X connect 37 0 28 0;
#X connect 39 0 12 1;
#X connect 41 0 12 0;
#X connect 43 0 30 1;
#X connect 44 0 45 0;
#X connect 46 0 47 0;
#X connect 47 0 48 0;
#X connect 48 0 31 1;
#X connect 50 0 34 0;
#X connect 50 1 1 0;
#X connect 51 0 50 1;
#X coords 0 -1 1 1 220 180 1 -150 100;
