#N canvas 99 109 937 661 10;
#X obj 114 431 gemwin;
#X obj 114 342 r close;
#X obj 191 343 r open;
#X msg 191 368 create \, 1;
#X obj 454 160 gemhead;
#X obj 454 291 translateXYZ;
#X obj 454 364 alpha;
#X obj 349 426 \$1 123;
#X obj 349 460 line;
#X obj 696 138 bng 15 250 50 0 empty empty empty 17 7 0 10 -262144
-1 -1;
#X obj 349 394 / 0.4;
#X obj 349 492 + 0.6;
#X obj 583 108 i;
#X obj 631 107 + 1;
#X floatatom 583 137 5 0 0 0 - - -;
#X obj 696 109 i;
#X obj 747 109 + 1;
#X obj 696 45 bng 15 250 50 0 empty open empty 17 7 0 10 -262144 -1
-1;
#X obj 454 335 colorRGB 1 0 0 1;
#X obj 583 73 metro 50;
#X obj 454 189 translateXYZ;
#X obj 696 74 metro 1000;
#X obj 454 255 rotateXYZ 45 45 45;
#X obj 454 540 cube;
#X msg 114 367 0 \, destroy;
#X obj 583 46 tgl 15 0 empty rotate empty 17 7 0 10 -262144 -1 -1 0
1;
#X obj 103 103 cnv 15 134 70 empty empty Sound_Visuals 8 12 0 14 -233017
-66577 0;
#X obj 111 134 bng 15 250 50 0 open empty empty 17 7 0 10 -204786 -1
-1;
#X obj 111 153 bng 15 250 50 0 close empty empty 17 7 0 10 -261234
-1 -1;
#X text 131 132 Open;
#X text 131 152 Close;
#X obj 173 133 tgl 15 0 rotate empty empty 17 7 0 10 -261682 -1 -1
0 1;
#X obj 103 177 cnv 15 134 80 empty empty Rotation 8 8 0 14 -233017
-66577 0;
#X floatatom 188 192 5 0 0 0 - - -;
#X floatatom 188 215 5 0 0 0 - - -;
#X floatatom 188 236 5 0 0 0 - - -;
#X obj 113 193 hsl 64 15 0 180 0 0 empty empty empty -2 -8 0 10 -257985
-1 -1 0 1;
#X obj 113 215 hsl 64 15 0 180 0 0 empty empty empty -2 -8 0 10 -257985
-1 -1 0 1;
#X obj 113 236 hsl 64 15 0 180 0 0 empty empty empty -2 -8 0 10 -257985
-1 -1 0 1;
#X text 171 152 AutoRotate;
#X obj 349 336 zexy/pack~;
#X floatatom 349 365 5 0 0 0 - - -;
#X obj 348 306 r~ s_visuals;
#X obj 165 128 cnv 2 2 45 empty empty empty 20 12 0 14 -262144 -66577
0;
#X floatatom 655 292 5 0 0 0 - - -;
#X floatatom 655 230 5 0 0 0 - - -;
#X obj 655 260 / 10;
#X floatatom 742 293 5 0 0 0 - - -;
#X floatatom 742 231 5 0 0 0 - - -;
#X obj 742 261 / 10;
#X obj 655 180 random 10;
#X obj 742 179 random 10;
#X obj 655 205 + 1;
#X obj 742 206 + 1;
#X floatatom 837 294 5 0 0 0 - - -;
#X floatatom 837 232 5 0 0 0 - - -;
#X obj 837 262 / 10;
#X obj 837 180 random 10;
#X obj 837 207 + 1;
#X text 573 369 the color changes in a chertain rate. the color range
is between 0-1 \, the reason each random value +1 is avoid 'white'
cube when RGB value is 0 0 0;
#X text 100 9 This patch use GEM library to make a soundwave have a
visual display. click on Open to create a default GEM window \, and
Close to destroy it. The visual consists of a cube that changes depending
on the inlet "s_visuals". Also \, the cube can rotate at sepecific
xyz values \, or automatically. In addition \, the color of the cube
is changing at a certain rate by using the 'metro' object.;
#X text 89 531 converting inout sound signal to numberical number \,
and make the cube fluctuate. The default size of the cube is 0.6.;
#X connect 1 0 24 0;
#X connect 2 0 3 0;
#X connect 3 0 0 0;
#X connect 4 0 20 0;
#X connect 5 0 18 0;
#X connect 6 0 23 0;
#X connect 7 0 8 0;
#X connect 8 0 11 0;
#X connect 9 0 50 0;
#X connect 9 0 51 0;
#X connect 9 0 57 0;
#X connect 10 0 7 0;
#X connect 11 0 23 1;
#X connect 12 0 13 0;
#X connect 12 0 14 0;
#X connect 13 0 12 1;
#X connect 14 0 22 2;
#X connect 14 0 22 3;
#X connect 14 0 22 1;
#X connect 15 0 16 0;
#X connect 15 0 9 0;
#X connect 16 0 15 1;
#X connect 17 0 21 0;
#X connect 18 0 6 0;
#X connect 19 0 12 0;
#X connect 20 0 22 0;
#X connect 21 0 15 0;
#X connect 22 0 5 0;
#X connect 24 0 0 0;
#X connect 25 0 19 0;
#X connect 33 0 22 1;
#X connect 34 0 22 2;
#X connect 35 0 22 3;
#X connect 36 0 33 0;
#X connect 37 0 34 0;
#X connect 38 0 35 0;
#X connect 40 0 41 0;
#X connect 41 0 10 0;
#X connect 42 0 40 0;
#X connect 44 0 18 1;
#X connect 45 0 46 0;
#X connect 46 0 44 0;
#X connect 47 0 18 2;
#X connect 48 0 49 0;
#X connect 49 0 47 0;
#X connect 50 0 52 0;
#X connect 51 0 53 0;
#X connect 52 0 45 0;
#X connect 53 0 48 0;
#X connect 54 0 18 3;
#X connect 55 0 56 0;
#X connect 56 0 54 0;
#X connect 57 0 58 0;
#X connect 58 0 55 0;
#X coords 0 -1 1 1 140 160 1 100 100;
