#N canvas 710 112 804 658 10;
#X obj -224 -145 cnv 20 800 650 empty empty Voice_Changer 50 20 0 22
-191407 -1 0;
#X obj 302 462 output~;
#X obj 381 463 wsprobe~;
#X obj -163 61 s~ original;
#X obj 453 343 r~ original;
#X obj -178 455 s~ sound-cout1;
#X obj 64 61 r~ sound-cout1;
#X obj 62 455 s~ sound-cout2;
#X obj 305 61 r~ sound-cout2;
#X text 379 482 open to view detail sound wave;
#X obj 447 462 s~ s_visuals;
#X obj -176 85 Highpassfilter~;
#X obj -177 184 Lowpassfilter~;
#X obj -177 283 Reverberation~;
#X obj 63 85 Vibrato~;
#X obj 62 283 Tremelo~;
#X obj 304 86 Ringmodulator~;
#X obj 303 261 Frequencyshifter~;
#X obj 303 363 Mixer~;
#X obj -176 -106 Setinput~;
#X obj 234 -106 Preset~;
#X obj 383 -106 Visuals~;
#X text 184 481 Activate dsp first!;
#X obj 4 -140 cnv 15 80 30 empty empty empty 20 12 0 14 -261682 -66577
0;
#X obj 11 -133 pddplink README.txt;
#X connect 4 0 18 1;
#X connect 6 0 14 0;
#X connect 8 0 16 0;
#X connect 11 0 12 0;
#X connect 12 0 13 0;
#X connect 13 0 5 0;
#X connect 14 0 15 0;
#X connect 15 0 7 0;
#X connect 16 0 17 0;
#X connect 17 0 18 0;
#X connect 18 0 1 0;
#X connect 18 0 1 1;
#X connect 18 0 2 0;
#X connect 18 0 10 0;
#X connect 19 0 3 0;
#X connect 19 0 11 0;
